<svg id="Layer_1" data-name="Layer 1" xmlns="http://www.w3.org/2000/svg" xmlns:xlink="http://www.w3.org/1999/xlink" viewBox="0 0 1920 1080"><defs><style>.cls-1{opacity:0.3;}.cls-10,.cls-11,.cls-12,.cls-13,.cls-14,.cls-15,.cls-16,.cls-17,.cls-18,.cls-19,.cls-2,.cls-3,.cls-4,.cls-5,.cls-6,.cls-7,.cls-8,.cls-9{opacity:0.7;}.cls-10,.cls-11,.cls-12,.cls-13,.cls-14,.cls-15,.cls-16,.cls-17,.cls-18,.cls-19,.cls-3,.cls-4,.cls-5,.cls-6,.cls-7,.cls-8,.cls-9{isolation:isolate;}.cls-3{fill:url(#linear-gradient);}.cls-4{fill:url(#linear-gradient-2);}.cls-5{fill:url(#linear-gradient-3);}.cls-6{fill:url(#linear-gradient-4);}.cls-7{fill:url(#linear-gradient-5);}.cls-8{fill:url(#linear-gradient-6);}.cls-9{fill:url(#linear-gradient-7);}.cls-10{fill:url(#linear-gradient-8);}.cls-11{fill:url(#linear-gradient-9);}.cls-12{fill:url(#linear-gradient-10);}.cls-13{fill:url(#linear-gradient-11);}.cls-14{fill:url(#linear-gradient-12);}.cls-15{fill:url(#linear-gradient-13);}.cls-16{fill:url(#linear-gradient-14);}.cls-17,.cls-18,.cls-19{fill-opacity:0.85;}.cls-17{fill:url(#linear-gradient-15);}.cls-18{fill:url(#linear-gradient-16);}.cls-19{fill:url(#linear-gradient-17);}</style><linearGradient id="linear-gradient" x1="1245.76" y1="219" x2="968.18" y2="579.99" gradientTransform="matrix(1, 0, 0, -1, 0, 1082)" gradientUnits="userSpaceOnUse"><stop offset="0" stop-color="#2a79ff" stop-opacity="0.15"/><stop offset="0.69" stop-color="#0007bf"/></linearGradient><linearGradient id="linear-gradient-2" x1="1211.02" y1="272.24" x2="979.28" y2="573.62" xlink:href="#linear-gradient"/><linearGradient id="linear-gradient-3" x1="1177.09" y1="324.43" x2="990.1" y2="567.6" xlink:href="#linear-gradient"/><linearGradient id="linear-gradient-4" x1="1144.27" y1="375.12" x2="1000.59" y2="561.97" xlink:href="#linear-gradient"/><linearGradient id="linear-gradient-5" x1="1119.68" y1="415.09" x2="1010.48" y2="557.1" xlink:href="#linear-gradient"/><linearGradient id="linear-gradient-6" x1="1132.48" y1="406.36" x2="1010.65" y2="564.79" xlink:href="#linear-gradient"/><linearGradient id="linear-gradient-7" x1="1148.05" y1="393.96" x2="973.62" y2="620.81" xlink:href="#linear-gradient"/><linearGradient id="linear-gradient-8" x1="1164.83" y1="380.42" x2="936.78" y2="677" xlink:href="#linear-gradient"/><linearGradient id="linear-gradient-9" x1="1182.24" y1="366.16" x2="899.99" y2="733.23" xlink:href="#linear-gradient"/><linearGradient id="linear-gradient-10" x1="1200.01" y1="351.5" x2="863.24" y2="789.47" xlink:href="#linear-gradient"/><linearGradient id="linear-gradient-11" x1="1217.99" y1="336.57" x2="826.47" y2="845.72" xlink:href="#linear-gradient"/><linearGradient id="linear-gradient-12" x1="1236.12" y1="321.42" x2="789.71" y2="901.97" xlink:href="#linear-gradient"/><linearGradient id="linear-gradient-13" x1="1254.3" y1="306.18" x2="752.93" y2="958.2" xlink:href="#linear-gradient"/><linearGradient id="linear-gradient-14" x1="1272.71" y1="290.62" x2="716.15" y2="1014.41" xlink:href="#linear-gradient"/><linearGradient id="linear-gradient-15" x1="1291" y1="275.2" x2="679.35" y2="1070.64" xlink:href="#linear-gradient"/><linearGradient id="linear-gradient-16" x1="1309.56" y1="259.41" x2="642.55" y2="1126.85" xlink:href="#linear-gradient"/><linearGradient id="linear-gradient-17" x1="1328.13" y1="243.61" x2="605.75" y2="1183.05" xlink:href="#linear-gradient"/></defs><title>Artboard 1</title><g class="cls-1"><g class="cls-2"><path class="cls-3" d="M1898.05-180.57l-.09.85c-37.88,4.1-77.33,23.64-114.11,56.49-32.28,28.85-61.95,67.61-83.54,109.14-22.13,42.58-38,87.51-53.31,131-13.14,37.27-26.75,75.81-44.26,112.79-99.1,209.12-340,367.1-548.56,359.64-9.74-.35-19.68-1-29.29-1.65-37.67-2.52-76.63-5.11-115.28,10.19-35.4,14-67.12,42-91.75,80.82a299.52,299.52,0,0,0-42.64,116.14c-5.9,41.91-4.34,83.3-2.83,123.33,1.28,33.92,2.6,69-.6,104.31-5.12,56.27-22.66,115.71-50.74,171.89a577.58,577.58,0,0,1-111.71,153.11A573.23,573.23,0,0,1,453.9,1455.27c-56.7,26.57-116.28,42.38-172.29,45.73l.14-.85c55.91-3.34,115.36-19.11,171.94-45.64a571.91,571.91,0,0,0,155.13-107.6,576.1,576.1,0,0,0,111.49-152.8c28-56.07,45.53-115.39,50.63-171.54,3.2-35.27,1.88-70.32.6-104.22-1.51-40.05-3.07-81.47,2.84-123.46a300.75,300.75,0,0,1,42.79-116.55c24.77-39.05,56.68-67.15,92.29-81.26,38.86-15.39,77.91-12.78,115.68-10.26,9.61.64,19.53,1.3,29.26,1.65,208.14,7.44,448.67-150.25,547.59-359,17.5-36.92,31.08-75.43,44.22-112.69,15.35-43.49,31.21-88.45,53.38-131.1,21.64-41.64,51.4-80.52,83.79-109.46C1820.32-156.81,1860-176.43,1898.05-180.57Z"/></g><g class="cls-2"><path class="cls-4" d="M1902.09-176.71l-.06,1.19c-34.63,6.11-72.12,27.2-108.41,61-31.39,29.19-61.56,67.66-84.95,108.29-2.84,4.94-5.73,10.11-8.6,15.38-18.72,34.53-33.49,69.54-47.76,103.42-15,35.65-30.57,72.51-50.41,107.69-30.2,53.52-73.7,103.42-112.28,145.17-48.93,53-91,92-132.38,122.74-62.77,46.65-130.71,80.49-196.49,97.85-29.31,7.77-56.7,12.29-83.73,13.83-14.75.85-29.67.67-45.46.49-14.26-.17-29-.35-43.48.31-22.81,1-41.53,4.21-58.87,10C894.28,622.33,863.62,645,838.09,678a275.19,275.19,0,0,0-49.78,105.9c-8.2,36.73-9.79,73.18-11.32,108.44-1.35,31-2.74,63.15-8.6,95.75-9,50-29.53,103.06-59.38,153.41-31.68,53.47-74,104.21-122.38,146.72A667.62,667.62,0,0,1,425,1392.45c-58.31,26.59-119.47,44-176.86,50.21l.14-1.21c57.26-6.25,118.27-23.57,176.44-50.09a666,666,0,0,0,161.28-104c48.26-42.39,90.46-93,122-146.32,29.76-50.19,50.24-103.06,59.2-152.92,5.84-32.52,7.23-64.58,8.58-95.58,1.54-35.31,3.12-71.83,11.35-108.66a276.77,276.77,0,0,1,50.07-106.5c25.37-32.8,57.14-56.29,91.88-67.94,17.47-5.83,36.3-9,59.24-10.06,14.51-.65,29.27-.48,43.54-.31,15.77.19,30.67.36,45.38-.48,26.94-1.54,54.24-6,83.46-13.8,65.61-17.31,133.37-51.06,196-97.58,41.3-30.71,83.29-69.65,132.16-122.54,38.51-41.68,81.93-91.48,112-144.87,19.8-35.1,35.33-71.91,50.34-107.52,14.29-33.9,29.07-69,47.83-103.56,2.87-5.28,5.77-10.47,8.62-15.41,23.47-40.77,53.74-79.37,85.25-108.69C1829.42-149.34,1867.18-170.56,1902.09-176.71Z"/></g><g class="cls-2"><path class="cls-5" d="M1906.08-172.86l0,1.54c-69.8,18-143.45,101.1-189.1,172.92-3,4.75-6.11,9.72-9.21,14.78-19,31-34.29,61.53-49.11,91-18,35.94-35.11,69.88-57.67,103.42-24,35.71-56.66,70.37-91.19,107-9.51,10.1-19.34,20.54-29.07,31.11q-11.89,12.9-23.45,25.59c-34.71,38-67.5,73.93-101.82,104.17C1299.18,528.33,1237.79,566.45,1178,589c-28.89,11-53,17.55-78.06,21.36-20.32,3.09-43,3.6-64.88,4.09-8.59.19-17.48.4-26.15.75-24.37,1-42.9,3.51-60.07,8.19-35.15,9.7-66.34,29-92.69,57.38A258.28,258.28,0,0,0,801.38,773c-10.45,31.78-15.08,63.54-19.55,94.25-4.07,27.94-8.28,56.84-16.85,86.5-13.06,45.16-37.31,93.25-70.1,139-35.11,49.16-80.4,96.24-131,136.16-101.24,79.81-228.56,136.43-349.33,155.31l.12-1.56c120.45-18.84,247.44-75.3,348.42-154.9,50.4-39.8,95.54-86.73,130.54-135.71,32.66-45.62,56.8-93.5,69.8-138.45,8.54-29.54,12.73-58.38,16.8-86.27,4.48-30.78,9.12-62.61,19.62-94.55a260.42,260.42,0,0,1,55.18-93c26.63-28.68,58.14-48.18,93.66-58,17.31-4.72,35.95-7.26,60.45-8.26,8.68-.35,17.57-.55,26.17-.75,21.86-.49,44.47-1,64.69-4.07,25-3.79,48.92-10.35,77.69-21.26,59.6-22.45,120.77-60.43,176.9-109.85,34.23-30.16,67-66,101.65-104q11.58-12.68,23.45-25.6c9.75-10.58,19.58-21,29.09-31.12,34.47-36.63,67-71.21,91-106.79,22.49-33.42,39.51-67.31,57.54-103.18,14.84-29.54,30.19-60.09,49.19-91.19,3.1-5.06,6.2-10,9.23-14.81C1761.6-71.18,1835.7-154.75,1906.08-172.86Z"/></g><g class="cls-2"><path class="cls-6" d="M1910-169l.25,1.83c-75.62,26.83-160.66,142-184.92,176.61q-5,7.15-9.83,14.17c-18.43,26.87-33.76,52.53-48.59,77.34-21,35.15-40.85,68.33-66.81,100.49-18.57,23-42.2,45.77-67.23,69.87-20,19.27-40.72,39.21-61,61.24-21.8,23.7-41.4,47.31-60.37,70.13-19.82,23.87-38.54,46.41-57.75,66.61-49.63,52.11-104.45,94.51-158.55,122.63-20.35,10.58-42.71,21.53-72.42,28.91-26.24,6.53-57.19,7.62-87.12,8.67l-6.06.22c-19.7.72-40.77,2-61.28,6.4a207.86,207.86,0,0,0-94.29,47.42,247.91,247.91,0,0,0-59.66,78.68c-12.85,27.23-20.12,53.46-27.83,81.23-6.79,24.46-13.82,49.76-25,76.09-17.22,40.28-45.17,83.39-80.83,124.67-38.59,44.82-86.85,88.24-139.55,125.57C436.07,1244.11,304.84,1301,181.09,1326l0-1.92c123.44-24.89,254.34-81.66,359.15-155.76,52.53-37.2,100.61-80.48,139.06-125.13,35.49-41.07,63.29-84,80.41-124,11.16-26.18,18.16-51.4,24.93-75.8,7.74-27.87,15-54.18,28-81.6,13.86-29.35,35.28-57.6,60.31-79.54a210.27,210.27,0,0,1,95.4-48c20.67-4.45,41.84-5.73,61.64-6.45l6.06-.22c29.82-1.05,60.67-2.14,86.69-8.61,29.47-7.32,51.68-18.19,71.91-28.71,53.84-28,108.42-70.21,157.85-122.1,19.13-20.13,37.83-42.64,57.62-66.46,19-22.86,38.62-46.5,60.46-70.24,20.32-22.1,41.05-42.06,61.1-61.37,25-24,48.54-46.74,67-69.62,25.83-32,45.63-65.12,66.58-100.18,14.85-24.85,30.21-50.54,48.69-77.48q4.83-7,9.84-14.19C1748.2-26.2,1833.67-141.88,1910-169Z"/></g><g class="cls-2"><path class="cls-7" d="M1913.91-165.07l.58,2.08c-43.9,20.84-104.74,81.52-180.82,180.35l-10.45,13.57c-16.54,21.51-30.81,41.62-44.62,61.06-25.14,35.42-48.88,68.87-79.42,100.15-15.41,15.77-34.07,31.47-53.82,48.1-26,21.84-55.4,46.61-82.31,75.93-29.71,32.37-53.18,64.93-75.88,96.42-12.06,16.73-23.45,32.54-35.05,47.24-43.13,54.54-91.38,101.24-139.53,135-17.58,12.34-37.52,26.33-66.81,36.49-27.63,9.6-62.16,11.91-95.36,13-20.56.66-41.81,1.34-62.52,4.61-35.76,5.64-68,18.25-95.94,37.49a250.3,250.3,0,0,0-64.57,65.13c-15.39,23-25.63,45.44-36.47,69.2-9.43,20.69-19.19,42.06-32.87,64.67-21.48,35.38-53.14,73.5-91.55,110.25-42.15,40.5-93.37,80.25-148.1,115-108.48,68.63-243.63,125.86-370.77,157l0-2.26c126.87-31.08,261.7-88.17,369.92-156.63,54.56-34.6,105.6-74.23,147.6-114.58,38.22-36.55,69.69-74.45,91-109.6,13.59-22.45,23.31-43.75,32.71-64.34,10.89-23.88,21.18-46.43,36.7-69.64a253.65,253.65,0,0,1,65.43-66c28.26-19.49,60.93-32.26,97.1-38,20.85-3.29,42.18-4,62.81-4.62,33-1.06,67.31-3.34,94.62-12.83,28.9-10,48.65-23.89,66.07-36.11,47.91-33.61,95.91-80.08,138.85-134.38,11.55-14.64,22.93-30.43,35-47.13,22.75-31.56,46.28-64.2,76.11-96.71,27.06-29.47,56.58-54.32,82.62-76.22,19.69-16.57,38.3-32.23,53.58-47.88,30.37-31.1,54-64.45,79.11-99.76,13.82-19.47,28.11-39.61,44.69-61.17L1732,16.24C1808.33-83,1869.56-144,1913.91-165.07Z"/></g><g class="cls-2"><path class="cls-8" d="M1917.73-161.1l1,2.2C1873.09-130.3,1807.55-52.54,1754.89,10L1742,25.27q-5.58,6.61-11.06,13c-11.81,13.71-22.58,26.57-33,39-33.3,39.76-62.06,74.11-99.73,105.6-13,10.89-28.14,21.74-44.15,33.24-31.77,22.82-67.78,48.69-99.84,83.67-35.31,38.55-60.3,79.71-82.36,116-7.36,12.12-14.32,23.58-21.37,34.51-36.6,56.59-78.24,107.56-120.45,147.37l-1,1c-16.06,15.16-32.68,30.84-60.2,43.17-23,10.29-54.87,15.87-97.58,17.06-4.37.13-8.71.22-13,.33-17.61.42-34.24.8-50.75,2.48-36.45,3.71-69.3,13-97.64,27.6a267.33,267.33,0,0,0-69.54,51.65c-18.56,19.3-32.23,38.54-46.7,58.9-11.62,16.36-23.64,33.29-39.08,51.51-25.92,30.49-61.27,63.6-102.22,95.77-45.86,36.21-100,72.29-156.64,104.35-111,62.63-250,120.17-381.45,157.82l-.16-2.59c131.22-37.58,270-95,380.72-157.52,56.45-32,110.46-67.94,156.17-104,40.77-32,75.93-65,101.69-95.24,15.33-18.1,27.3-35,38.89-51.25,14.55-20.49,28.3-39.83,47-59.33A270.77,270.77,0,0,1,909,686.93c28.7-14.79,61.92-24.18,98.74-27.93,16.62-1.68,33.3-2.08,51-2.5q6.46-.15,13-.32c42.33-1.19,73.88-6.68,96.44-16.8,27-12.08,43.36-27.54,59.2-42.49l1-1c42-39.62,83.45-90.34,119.88-146.69,7-10.89,14-22.32,21.31-34.42,22.15-36.46,47.25-77.79,82.8-116.6,32.32-35.27,68.5-61.26,100.42-84.19,16-11.45,31-22.27,43.93-33.07,37.41-31.28,66.07-65.51,99.26-105.13,10.43-12.45,21.21-25.32,33-39.06q5.48-6.33,11-12.94L1753,8.51C1805.82-54.18,1871.57-132.19,1917.73-161.1Z"/></g><g class="cls-2"><path class="cls-9" d="M1923.09-154.87c-27.92,23-67,67.89-108.39,115.44-21.62,24.84-44,50.53-64.45,72.62q-5.89,6.36-11.7,12.38l-.33.34c-54.2,56.28-90,93.46-141.11,127.68-10.84,7.27-22.95,14.51-35.75,22.18-37.25,22.32-79.47,47.6-116,87.58-39.78,43.53-63.31,90.86-84.06,132.61-4.3,8.65-8.35,16.81-12.46,24.77-30.06,58-65.11,113.26-101.36,159.68l-1.75,2.24c-13.35,17.14-27.16,34.86-53.9,49.6-29.44,16.23-70.54,20.48-99.83,21.19-9.35.23-18.6.27-27.55.32-13,.06-25.24.12-37.49.7-38.13,1.78-70.64,7.57-99.39,17.68A314.56,314.56,0,0,0,853,730.37c-23.67,16.41-42.37,33.48-62.18,51.56-12.26,11.18-24.94,22.75-40,35.39C720,843,681,871.14,637.94,898.58A1836.26,1836.26,0,0,1,472.8,992.29c-112.71,56.57-252,112.91-392.08,158.64L80.4,1148c140-45.67,279-101.93,391.56-158.42a1831,1831,0,0,0,164.78-93.51c42.86-27.34,81.73-55.33,112.39-80.94,15-12.57,27.65-24.11,39.88-35.27,19.91-18.17,38.72-35.34,62.62-51.9a318,318,0,0,1,75.52-38.72C956.21,679,989,673.19,1027.48,671.39c12.31-.58,24.6-.64,37.62-.7,8.94-.05,18.17-.09,27.49-.33,28.92-.69,69.44-4.85,98.23-20.73,26-14.32,39.53-31.69,52.62-48.5l1.75-2.24c36.1-46.23,71-101.22,101-159,4.09-7.93,8.14-16.07,12.43-24.7,20.88-42,44.53-89.61,84.72-133.56,37-40.44,79.47-65.9,117-88.36,12.77-7.64,24.82-14.87,35.58-22.07,50.72-34,86.4-71,140.42-127.09l.33-.35q5.79-6,11.64-12.32c20.43-22,42.77-47.7,64.36-72.52,41.5-47.68,80.7-92.73,108.9-115.94Z"/></g><g class="cls-2"><path class="cls-10" d="M1927.48-150.95c-13,14.11-30,34.5-49.8,58.11-35.42,42.3-79.51,94.94-119.17,134-4.19,4.13-8.35,8.1-12.34,11.78C1686.8,108,1646.09,138.19,1596,164.33c-8.52,4.44-17.68,8.88-27.37,13.58-40.66,19.7-91.26,44.23-132.15,89-43.64,47.81-64.42,100.81-82.76,147.58q-3.33,8.49-6.55,16.58a1489.58,1489.58,0,0,1-82.26,171.94l-1.53,2.74c-10.85,19.42-22.06,39.5-48.53,56.86-31.8,20.87-77.62,24.84-102.1,25.35-14.59.3-28.76,0-42.46-.35-8.07-.19-16-.38-23.86-.43-40.41-.28-73.51,2.26-101.19,7.76a411.63,411.63,0,0,0-79.69,24.82c-35.28,14.82-62.52,30.75-97,50.93-6.86,4-14,8.19-21.58,12.58C708.34,805.55,666.84,828,623.59,850,567.27,878.92,508.85,906.88,450,933.12c-106.76,47.41-238.48,99.57-402.69,159.44l-.48-3.21c164.12-59.84,295.75-112,402.42-159.33,58.8-26.21,117.14-54.13,173.4-83,43.18-22,84.62-44.41,123.17-66.62,7.56-4.37,14.7-8.55,21.56-12.57,34.63-20.25,62-36.25,97.53-51.19a414.8,414.8,0,0,1,80.45-25c27.93-5.55,61.25-8.12,101.89-7.84,7.87.05,15.83.24,23.93.43,13.66.32,27.79.65,42.3.35,24.08-.49,69.09-4.36,100-24.66,25.5-16.72,36.43-36.29,47-55.21l1.54-2.76a1483.28,1483.28,0,0,0,82-171.43c2.15-5.37,4.32-10.9,6.53-16.54,18.48-47.13,39.43-100.54,83.65-149,41.5-45.48,92.55-70.22,133.56-90.09,9.66-4.68,18.79-9.12,27.26-13.53,49.7-25.93,90.13-55.93,149.17-110.7,3.95-3.66,8.06-7.58,12.22-11.68,39.5-38.88,83.5-91.42,118.86-133.64,19.81-23.64,36.92-44.07,50-58.27Z"/></g><g class="cls-2"><path class="cls-11" d="M1931.88-147.1C1900.77-101.37,1831-8.59,1766.75,49.08c-4.4,4-8.76,7.71-13,11.19-62.59,51.83-107.21,74.7-159,94.79-5.77,2.25-11.83,4.52-18.1,6.86-46.23,17.31-103.76,38.84-149.11,88.61-47.11,51.71-65,112.68-79.38,161.65l-2.73,9.28c-17.23,58-37.3,116.48-63.18,184.18l-1,2.63c-8,20.89-17,44.57-43.42,64.77-23.59,18-61.64,28.78-104.39,29.52-20.17.35-39.33-.84-57.85-2l-9.77-.61c-41.19-2.43-74.47-3.73-103-2.17-34.14,1.87-63.26,7.05-84.81,11.35-43.87,8.75-80.46,19.62-135,40.1-36.37,13.59-79.85,30.82-130.2,50.79l-39.74,15.88c-44,17.64-93.94,37.62-146,58C377,893.55,325.29,913.35,270.56,934.32,185.18,967,96.89,1000.85,13.85,1034.19l-.68-3.5c83.08-33.35,171.39-67.18,256.78-99.9,54.72-21,106.4-40.77,156.54-60.34,52.06-20.42,102-40.4,146-58l39.76-15.9c50.37-20,93.87-37.21,130.28-50.81,54.77-20.58,91.53-31.5,135.66-40.3,21.68-4.33,51-9.53,85.38-11.42,28.7-1.57,62.1-.27,103.41,2.17l9.78.6c18.46,1.15,37.54,2.34,57.56,2,41.87-.73,79-11.13,101.75-28.56,25.28-19.29,33.64-41.27,41.73-62.52l1-2.64c25.84-67.59,45.88-126,63.07-183.85l2.73-9.26c14.52-49.46,32.57-111,80.48-163.58,46.19-50.7,104.34-72.47,151.08-90,6.25-2.34,12.29-4.6,18-6.83,51.28-19.93,95.52-42.59,157.58-94,4.16-3.44,8.47-7.16,12.81-11.06,63.84-57.33,133.31-149.69,164.3-195.23Z"/></g><g class="cls-2"><path class="cls-12" d="M1936.28-143.35C1913.17-95.82,1844.27.26,1775,57c-4.55,3.74-9.14,7.31-13.63,10.6-65.26,48.17-116.57,64.46-167.72,78.15l-7.14,1.9c-49.6,13.18-117.54,31.25-167.73,86.43C1368.39,289.49,1355,356,1344.31,409.4l-.48,2.39c-12.94,64.1-26.94,123.49-39.28,175.88l-5.33,22.64c-5.48,23.38-11.68,49.89-38.24,73.08-23.47,20.52-63.36,33.12-106.7,33.73-23.89.34-46.23-1.88-68.92-4.39-16.51-1.82-31.76-3.75-46.5-5.6-20.86-2.63-40.57-5.12-58.33-6.55-33.52-2.7-64.27-2.6-89.93-2.15-47.45.84-91.36,4-151.39,16.73-39.08,8.21-86.31,20.57-144.42,37.8C542.28,768.66,480,788.89,404.28,814.8,235.2,872.43,96.57,925.09-19.56,975.81l-.88-3.78c116.25-50.78,255-103.49,424.22-161.17,75.75-25.92,138.13-46.17,190.7-61.9,58.24-17.26,105.6-29.66,144.79-37.89,60.38-12.8,104.51-16,152.21-16.82,25.75-.46,56.62-.56,90.31,2.17,17.84,1.44,37.58,3.92,58.49,6.56,14.73,1.86,30,3.78,46.44,5.6,22.57,2.49,44.78,4.7,68.45,4.37,42.25-.59,80.94-12.71,103.49-32.41,25.19-22,30.93-46.53,36.49-70.26l5.33-22.64c12.34-52.36,26.32-111.71,39.26-175.74l.48-2.38c10.84-54,24.34-121.28,75.73-177.79s120.12-74.7,170.36-88.06l7.12-1.9c50.66-13.57,101.47-29.68,166-77.28,4.41-3.25,8.91-6.75,13.39-10.43,68.65-56.25,136.91-151.41,159.79-198.47Z"/></g><g class="cls-2"><path class="cls-13" d="M1940.64-139.63C1923-85.34,1854,12.06,1783.17,65c-4.77,3.56-9.57,6.93-14.27,10-67.47,44.27-122.9,53-176.51,61.47-47.47,7.49-126.91,20-182.49,81.21-53.42,58.83-61.7,131.4-67.74,184.4-4.19,36.4-8.51,71.31-12.69,105.08-4.52,36.52-8.78,71-12.4,103.59l-.13,1.17c-2.89,26-6.16,55.46-32.87,81.79-23.61,23.27-64.36,37.46-109,37.95-26.07.29-50.13-3-70.24-6.21-28.29-4.54-54-10.36-76.59-15.5-10.52-2.39-20.45-4.64-30.05-6.64-34.18-7.14-65.87-11.76-95-15.68-55.49-7.49-105.26-11.49-167.84-6.65-44,3.34-96.18,11.2-155,23.38-58.55,12.27-125.49,29.51-198.95,51.25C270.84,788.2,105.74,842.71-53,917.43l-1.11-4C105,838.5,270.34,783.9,381.09,751.28c73.59-21.77,140.67-39,199.36-51.34,59-12.23,111.33-20.13,155.57-23.48,63-4.86,113-.85,168.73,6.67,29.22,3.94,61,8.58,95.28,15.73,9.64,2,19.59,4.27,30.12,6.66,22.58,5.12,48.17,10.92,76.35,15.45,19.93,3.21,43.79,6.44,69.54,6.16,43.34-.47,82.67-14,105.22-36.26,25.2-24.83,28.36-53.29,31.15-78.39l.13-1.17c3.63-32.61,7.89-67.12,12.41-103.65,4.18-33.76,8.5-68.65,12.68-105,6.12-53.72,14.52-127.28,69.23-187.52,57-62.78,137.66-75.5,185.85-83.11,53-8.37,107.91-17,174.35-60.62,4.6-3,9.29-6.3,14-9.79,67.92-50.74,138-148.32,155.3-201.67Z"/></g><g class="cls-2"><path class="cls-14" d="M1944.94-135.93C1934.38-79.47,1866.45,21.86,1791.35,73c-5,3.4-10,6.56-14.93,9.42-65.57,38.13-119.59,41.12-176.79,44.29l-8.49.48c-60.32,3.43-136.46,15-190.1,74.13-51.8,57.11-58.43,128.59-60.58,191.1l-.92,25.83c-2.47,69.36-4.8,134.88-5.16,195.11-.17,28.65-.36,61.13-27.24,90.71-27.87,30.68-75.77,41.91-111.32,42.19-21.88.18-44.62-2.38-71.56-8-34.21-7.17-64.5-17.38-91.22-26.4-5.86-2-11.6-3.91-17.22-5.76-37.17-12.24-71.44-21.64-100.06-29.22-53.22-14.08-112.38-27.47-184.3-30-48.86-1.78-104.55,1.25-165.53,9-62.92,8.11-132.7,21.8-207.4,40.66C247.32,724.42,79.86,775.31-86.37,859l-1.35-4.32c166.73-84,334.63-135,446.12-163,74.91-18.91,144.9-32.63,208-40.77,61.26-7.79,117.21-10.83,166.32-9,72.35,2.55,131.79,16,185.24,30.14,28.68,7.61,63,17,100.29,29.29,5.63,1.86,11.37,3.8,17.24,5.78,26.62,9,56.79,19.15,90.76,26.27,26.64,5.59,49.08,8.12,70.63,7.94,34.34-.27,80.47-11,106.95-40.09,25.26-27.79,25.44-59.14,25.61-86.8.35-60.3,2.69-125.85,5.16-195.25l.91-25.82c2.19-63.51,9-136.18,62.22-194.89,55.22-60.89,132.81-72.72,194.24-76.22l8.49-.47c56.53-3.14,109.92-6.1,174.26-43.51,4.79-2.77,9.67-5.85,14.53-9.16,73.79-50.22,140.49-149.56,150.83-204.83Z"/></g><g class="cls-2"><path class="cls-15" d="M1949.22-132.22C1944.63-66.31,1873.28,35.3,1799.52,81c-5.16,3.2-10.4,6.17-15.59,8.82-65.26,33.46-119.44,31.17-176.81,28.74-5.73-.25-11.46-.49-17.22-.7-89.3-3.18-154,18.76-197.71,67.06-51.51,56.87-56.12,128.69-53.44,197.83,2.71,71,6.36,154.29,12.93,233.22,2.52,29.13,5.66,65.4-21.46,98.43-18.28,22.26-57.73,46.16-113.63,46.45-23.18.12-46.34-3-72.89-9.86-37.49-9.66-70.43-24.4-99.49-37.4l-10.73-4.8c-31.31-13.89-63.72-27.07-105.09-42.75-55.09-20.61-122-43.07-200.78-53.4-53.44-7.05-112.7-8.87-176.13-5.38C484.71,611,412.09,621.1,335.64,637.3,173.4,671.52,15.93,728-119.76,800.64l-1.61-4.55c136.24-72.93,294.29-129.62,457.08-164,76.73-16.25,149.64-26.41,216.68-30.19,63.74-3.5,123.31-1.68,177.05,5.42,79.18,10.38,146.41,32.94,201.74,53.63,41.45,15.71,73.92,28.92,105.3,42.84l10.74,4.8c28.92,12.94,61.69,27.61,98.84,37.18,26.15,6.74,48.94,9.83,71.7,9.72,33.65-.18,82.3-11.78,108.68-43.91,25.42-31,22.39-66,20-94.07-6.57-79-10.23-162.36-13-233.45-2.73-70.37,2.06-143.58,55.18-202.23,45.18-49.9,111.47-72.58,202.64-69.32,5.77.21,11.52.45,17.26.69,56.62,2.4,110.09,4.66,173.9-28,5-2.57,10.1-5.44,15.1-8.54,72.16-44.68,141.93-143.83,146.4-208Z"/></g><g class="cls-2"><path class="cls-16" d="M1953.45-128.49C1955.7-58.85,1886.21,44.79,1807.67,89c-5.4,3-10.86,5.8-16.25,8.21-65.81,29.59-123.41,21.85-179.1,14.38-7.88-1.06-15.77-2.12-23.68-3.08-62.1-7.52-148.15-3.22-205.32,60C1329.66,227.8,1329.81,305.16,1337,373c10,94.87,20.49,175.18,31.94,245.52,4.85,29.44,11.52,69.76-15.66,106.12-27.87,37.3-79.87,50.63-115.94,50.72-24.13,0-48.41-3.77-74.23-11.69-39.14-11.85-73.55-30.93-103.9-47.77l-8.08-4.46c-34.51-19.06-70.53-37.47-110.1-56.29-81.33-38.39-148.34-62.07-217.25-76.78C665.82,566,603,559.32,537,558.61c-70.45-.67-145.91,5.9-224.3,19.52C147,606.81-14.1,663.57-153.15,742.25l-1.87-4.79c139.75-79.07,301.6-136.09,468.07-164.91,78.73-13.68,154.54-20.27,225.33-19.6,66.29.71,129.46,7.4,187.75,19.88,69.27,14.78,136.58,38.56,218.23,77.11,39.66,18.86,75.74,37.3,110.33,56.4l8.08,4.48c31.65,17.54,64.36,35.7,103.07,47.41,25.37,7.78,49.18,11.54,72.79,11.48,34.54-.08,84.19-12.63,110.41-47.71,25.43-34,19-73,14.32-101.36-11.46-70.44-21.92-150.84-32-245.8-7.36-69.18-7.39-148.19,48.14-209.59,59.25-65.54,147.46-70.11,211-62.41,7.92,1,15.82,2,23.72,3.08,54.92,7.38,111.71,15,175.87-13.84,5.19-2.33,10.47-5,15.66-7.92,75.12-42.24,144.11-144.87,142-211.19Z"/></g><g class="cls-2"><path class="cls-17" d="M1957.67-124.75c8.77,72.34-60.17,180.07-141.87,221.68-5.61,2.85-11.29,5.42-16.91,7.61-66.87,26.16-125.76,13.21-182.71.68-9.43-2.08-19.18-4.22-28.76-6.14-52.24-10.45-149.34-17.45-213,53-55.57,61.54-51,141.32-39.18,211.26,16,95,32.68,179.33,50.94,257.83,6.9,29.49,17.34,74.07-9.86,113.8-17.35,25.37-58.74,55-118.24,55-25,0-49.75-4.43-75.57-13.53-40.35-14.09-74.42-36.46-107.37-58.11l-6.36-4.17c-37.24-24.39-76-47.88-115.11-69.81C869.85,597.5,795.58,565.68,720,544.14,657.46,526.3,591.06,514.82,522.6,510c-74-5.15-152.32-2.14-232.76,9C120.22,542.27-44.51,599.29-186.54,683.83l-2.13-5C-45.8,593.77,119.86,536.42,290.38,513c80.85-11.15,159.57-14.18,234-9,68.82,4.84,135.58,16.39,198.43,34.32,76,21.64,150.54,53.6,234.73,100.58,39.23,22,78,45.53,115.36,70l6.37,4.18c32.72,21.49,66.56,43.7,106.39,57.62,25.28,8.9,49.43,13.24,73.85,13.24,56.75,0,95.87-27.74,112.14-51.51,23.49-34.32,17.52-71,8.7-108.67-18.29-78.6-35-163-51-258.14-5-29.87-10.26-69.26-5.72-109,4.94-43.26,20.26-78.59,46.8-108,66.13-73.22,165.86-66.18,219.42-55.47,9.64,1.93,19.41,4.08,28.87,6.16,56.12,12.35,114.15,25.11,179.18-.34,5.39-2.1,10.85-4.56,16.23-7.3,79.19-40.32,146-144.52,137.56-214.39Z"/></g><g class="cls-2"><path class="cls-18" d="M1961.86-121c15.3,76.47-51.74,186.26-137.93,225.91a177.45,177.45,0,0,1-17.58,7c-68.23,23-128.64,4.92-187.07-12.59-10.86-3.25-22.09-6.62-33.1-9.63-133.34-36.43-202.54,26-220.57,45.95-57.74,64-47.46,150.11-32.06,218,21.39,94.3,44.92,185.2,69.94,270.16,11.71,39.64,21,81.67-4,121.47-25.89,41.09-79.2,59.37-120.56,59.26-25.86-.07-51-5.1-76.9-15.37-40.75-16.1-75.4-42.17-108.9-67.38l-6.56-4.94c-39-29.41-79.36-57.43-120.12-83.33C880.52,579,798.67,538.57,716.19,509.9a1019.39,1019.39,0,0,0-208-48.52c-77.53-9.67-158.69-10.21-241.23-1.6C93.21,477.85-75.14,535.13-219.91,625.43l-2.43-5.23c145.8-90.93,315.26-148.61,490.07-166.79,83-8.66,164.63-8.12,242.6,1.6a1025.61,1025.61,0,0,1,209.12,48.77c82.83,28.79,165,69.38,251.21,124.05,40.86,26,81.38,54.06,120.42,83.54l6.56,4.93c33.26,25,67.65,50.91,107.8,66.78,25.27,10,49.78,14.93,74.92,15,39.27.11,89.71-17,113.88-55.3,23.44-37.21,14.37-77.71,3.07-116-25.06-85.07-48.62-176.08-70-270.47-15.75-69.41-26.12-157.63,34-224.32,28.21-31.26,65.61-50.49,111.17-57.14,45.84-6.68,88.72,1,116.62,8.63,11.07,3,22.34,6.4,33.23,9.66,57.55,17.25,117.06,35.08,183.3,12.74a169.1,169.1,0,0,0,16.79-6.7c83.16-38.24,147.86-144,133.14-217.61Z"/></g><g class="cls-2"><path class="cls-19" d="M1966.06-117.22c11.22,41.59.06,92.77-30.63,140.44s-75,82.67-121.61,96.05c-69.82,20.06-131.91-3.15-192-25.59-12.12-4.53-24.64-9.22-36.91-13.4-108.91-37.15-189.29-4.24-228.2,39-60.19,66.81-43.07,160.22-25,224.68,26.73,95.13,56.66,190.18,89,282.48,6.45,18.45,13.5,40,15.51,62.48,2.25,25.1-2.25,46.9-13.75,66.63-25.76,44.2-80.26,63.76-122.86,63.55-78.37-.4-135-48.36-189.71-94.75l-5.72-4.83C903.8,549.94,704.1,449.61,493.72,412.74,238.27,368-34,424.21-253.29,567l-2.71-5.43C-35,417.69,239.17,361,496.31,406.07c211.32,37,411.81,137.72,612.94,307.83l5.72,4.84c54,45.8,109.93,93.15,186.26,93.54,40.29.2,91.66-18,115.61-59.09,23.4-40.17,11.58-83-2.55-123.35-32.32-92.42-62.28-187.56-89-282.8-38.74-137.83-3.16-198.23,27-231.67,62-68.87,162.68-66.63,236.17-41.55,12.33,4.2,24.9,8.9,37.06,13.44,59.13,22.1,120.29,45,188,25.52C1858,100,1900.47,66.36,1930,20.55s40.25-94.91,29.51-134.69Z"/></g></g></svg>